<?xml version="1.0" encoding="windows-1252"?>
<!-- Generator: Adobe Illustrator 19.2.0, SVG Export Plug-In . SVG Version: 6.00 Build 0)  -->
<svg version="1.1" xmlns="http://www.w3.org/2000/svg" xmlns:xlink="http://www.w3.org/1999/xlink" x="0px" y="0px" viewBox="-49 238 512 415" style="enable-background:new -49 238 512 415;" xml:space="preserve">
<g id="Layer_1">
	<path style="fill:#333333;" d="M71.4,245H-1c-22.056,0-40,17.944-40,40v272c0,22.056,17.944,40,40,40h96v32H63v16h288v-16h-32v-32   h96c22.056,0,40-17.944,40-40V285c0-22.056-17.944-40-40-40h-72.4 M198.992,181 M303,629H111v-32h192V629z M415,581H-1   c-13.232,0-24-10.768-24-24v-8h464v8C439,570.232,428.232,581,415,581z"/>
</g>
<g id="&#1057;&#1083;&#1086;&#1081;_2">
	<path style="fill:#FFFFFF;" d="M414,532.999H1.997c-13.75,0-25-11.25-25-25V287.996c0-13.75,11.25-25,25-25H414   c13.75,0,25,11.25,25,25v220.004C439,521.749,427.75,532.999,414,532.999z"/>
</g>
<g id="&#1057;&#1083;&#1086;&#1081;_3">
	<g>
		<g>
			<rect x="146.447" y="409.239" style="fill:#333333;" width="8.074" height="92.848"/>
			<rect x="122.225" y="453.645" style="fill:#333333;" width="8.074" height="48.443"/>
			<rect x="170.668" y="376.944" style="fill:#333333;" width="8.074" height="125.143"/>
			<rect x="194.889" y="465.755" style="fill:#333333;" width="8.074" height="36.332"/>
			<rect x="219.111" y="449.608" style="fill:#333333;" width="8.074" height="52.479"/>
			<rect x="243.332" y="425.387" style="fill:#333333;" width="8.074" height="76.701"/>
			<rect x="267.553" y="296.206" style="fill:#333333;" width="8.074" height="205.881"/>
			<rect x="291.775" y="473.829" style="fill:#333333;" width="8.074" height="28.258"/>
		</g>
		<path style="fill:#333333;" d="M102.037,506.124c-0.605,0-1.222-0.136-1.801-0.426c-1.995-0.998-2.803-3.422-1.805-5.417    l24.221-48.443c0.792-1.587,2.535-2.464,4.276-2.176l70.959,11.827l45.795-34.347l23.938-131.658    c0.398-2.192,2.499-3.639,4.693-3.25c2.194,0.398,3.648,2.501,3.25,4.693l-24.221,133.217c-0.181,1.001-0.735,1.898-1.549,2.507    l-48.443,36.332c-0.883,0.664-1.997,0.94-3.087,0.753l-69.724-11.621l-22.887,45.776    C104.945,505.308,103.52,506.124,102.037,506.124z"/>
		<g>
			<path style="fill:#333333;" d="M102.041,481.903h-8.074c-2.229,0-4.037-1.808-4.037-4.037l0,0c0-2.229,1.808-4.037,4.037-4.037     h8.074V481.903z"/>
			<path style="fill:#333333;" d="M102.041,457.682h-8.074c-2.229,0-4.037-1.808-4.037-4.037l0,0c0-2.229,1.808-4.037,4.037-4.037     h8.074V457.682z"/>
			<path style="fill:#333333;" d="M102.041,433.46h-8.074c-2.229,0-4.037-1.808-4.037-4.037l0,0c0-2.229,1.808-4.037,4.037-4.037     h8.074V433.46z"/>
			<path style="fill:#333333;" d="M102.041,409.239h-8.074c-2.229,0-4.037-1.808-4.037-4.037l0,0c0-2.229,1.808-4.037,4.037-4.037     h8.074V409.239z"/>
			<path style="fill:#333333;" d="M102.041,385.018h-8.074c-2.229,0-4.037-1.807-4.037-4.037l0,0c0-2.229,1.808-4.037,4.037-4.037     h8.074V385.018z"/>
			<path style="fill:#333333;" d="M102.041,360.797h-8.074c-2.229,0-4.037-1.807-4.037-4.037l0,0c0-2.229,1.808-4.037,4.037-4.037     h8.074V360.797z"/>
			<path style="fill:#333333;" d="M102.041,336.575h-8.074c-2.229,0-4.037-1.808-4.037-4.037l0,0c0-2.229,1.808-4.037,4.037-4.037     h8.074V336.575z"/>
			<path style="fill:#333333;" d="M102.041,312.354h-8.074c-2.229,0-4.037-1.808-4.037-4.037l0,0c0-2.229,1.808-4.037,4.037-4.037     h8.074V312.354z"/>
			<path style="fill:#333333;" d="M299.848,502.087v8.074c0,2.229-1.807,4.037-4.037,4.037l0,0c-2.229,0-4.037-1.807-4.037-4.037     v-8.074H299.848z"/>
			<path style="fill:#333333;" d="M275.627,502.087v8.074c0,2.229-1.808,4.037-4.037,4.037l0,0c-2.229,0-4.037-1.807-4.037-4.037     v-8.074H275.627z"/>
			<path style="fill:#333333;" d="M251.406,502.087v8.074c0,2.229-1.808,4.037-4.037,4.037l0,0c-2.229,0-4.037-1.807-4.037-4.037     v-8.074H251.406z"/>
			<path style="fill:#333333;" d="M227.184,502.087v8.074c0,2.229-1.808,4.037-4.037,4.037l0,0c-2.229,0-4.037-1.807-4.037-4.037     v-8.074H227.184z"/>
			<path style="fill:#333333;" d="M202.963,502.087v8.074c0,2.229-1.808,4.037-4.037,4.037l0,0c-2.229,0-4.037-1.807-4.037-4.037     v-8.074H202.963z"/>
			<path style="fill:#333333;" d="M178.742,502.087v8.074c0,2.229-1.808,4.037-4.037,4.037l0,0c-2.229,0-4.037-1.807-4.037-4.037     v-8.074H178.742z"/>
			<path style="fill:#333333;" d="M154.521,502.087v8.074c0,2.229-1.808,4.037-4.037,4.037l0,0c-2.229,0-4.037-1.807-4.037-4.037     v-8.074H154.521z"/>
			<path style="fill:#333333;" d="M130.299,502.087v8.074c0,2.229-1.808,4.037-4.037,4.037l0,0c-2.229,0-4.037-1.807-4.037-4.037     v-8.074H130.299z"/>
		</g>
		<g>
			<path style="fill:#333333;" d="M102.041,514.198L102.041,514.198c-2.229,0-4.037-1.807-4.037-4.037V284.096     c0-2.229,1.808-4.037,4.037-4.037l0,0c2.229,0,4.037,1.807,4.037,4.037v226.065C106.078,512.391,104.27,514.198,102.041,514.198z     "/>
			<path style="fill:#333333;" d="M89.93,502.087L89.93,502.087c0-2.229,1.808-4.037,4.037-4.037h226.065     c2.229,0,4.037,1.808,4.037,4.037l0,0c0,2.229-1.807,4.037-4.037,4.037H93.967C91.738,506.124,89.93,504.317,89.93,502.087z"/>
		</g>
		<circle style="fill:#333333;" cx="126.262" cy="453.645" r="8.074"/>
		<g>
			<circle style="fill:#333333;" cx="150.484" cy="409.239" r="8.074"/>
			<circle style="fill:#333333;" cx="174.705" cy="376.944" r="8.074"/>
			<circle style="fill:#333333;" cx="223.148" cy="449.608" r="8.074"/>
			<circle style="fill:#333333;" cx="295.811" cy="473.829" r="8.074"/>
		</g>
		<g>
			<circle style="fill:#333333;" cx="198.926" cy="465.755" r="8.074"/>
			<circle style="fill:#333333;" cx="247.369" cy="429.423" r="8.074"/>
			<circle style="fill:#333333;" cx="271.59" cy="296.206" r="8.074"/>
		</g>
		<path style="fill:#F9BA48;" d="M295.811,477.868c-0.422,0-0.853-0.067-1.277-0.209l-72.664-24.221    c-0.852-0.284-1.583-0.844-2.082-1.591l-45.277-67.915l-20.8,27.73c-1.23,1.638-3.497,2.097-5.263,1.064l-48.443-28.258    c-1.926-1.124-2.576-3.595-1.453-5.521c1.125-1.924,3.593-2.576,5.521-1.453l45.336,26.447l22.065-29.419    c0.785-1.049,2.01-1.705,3.341-1.612c1.309,0.035,2.519,0.705,3.247,1.796l47.674,71.511L297.089,470    c2.115,0.705,3.258,2.992,2.553,5.107C299.078,476.798,297.502,477.868,295.811,477.868z"/>
	</g>
</g>
</svg>