<svg width="796" height="420" viewBox="0 0 348 210" xmlns="http://www.w3.org/2000/svg">
  <g fill="#fff" opacity=".2">
    <path d="M30.6995813 43.00890684c3.48828612-.3051855 6.56499311 2.29226692 6.87201752 5.80157194.30702432 3.50930403-2.2718977 6.60155986-5.76018382 6.90674535-3.48828601.30518548-6.5649931-2.29226692-6.87201742-5.80157095-.3070244-3.50930502 2.27189771-6.60156086 5.76018373-6.90674634zm.19457093 2.22395585c-2.26738585.19837056-3.94368533 2.2083362-3.74411942 4.48938497.19956582 2.28104777 2.19942541 3.96939118 4.46681127 3.77102062 2.26738595-.19837057 3.94368533-2.2083362 3.7441195-4.48938398-.1995659-2.28104876-2.1994254-3.96939218-4.46681135-3.77102161zM85.55670162 154.90824347c.72004883 2.88795812 3.65902276 4.64187892 6.56438217 3.91749147 2.90536037-.7243877 4.67690439-3.65277254 3.95685556-6.54073066-.72004883-2.88795812-3.65902276-4.64187892-6.56438314-3.91749122-2.9053594.72438746-4.67690342 3.6527723-3.95685459 6.54073041zm1.84121668-.45906687c-.46803178-1.87717293.68347169-3.78062241 2.57195535-4.25147427 1.88848366-.47085186 3.79881725.6691959 4.26684902 2.54636883.46803178 1.87717292-.68347241 3.78062362-2.57195608 4.25147548-1.88848366.47085186-3.79881652-.66919712-4.2668483-2.54637004z" opacity=".95"/>
    <path opacity=".93" d="M56.12829137 66.40271574l8.37975107-4.92756127-.1781097 10.14281825z"/>
    <path opacity=".92" d="M37.61744354 15.94351097l3.87156101-10.86489789-11.85418763 2.5045946z"/>
    <path opacity=".81" d="M327.34510161 88.54405376l5.08838186 5.97664404 2.56235633-7.83888856z"/>
    <path opacity=".82" d="M239.01572035 4.3892577l6.83796452-3.8863028-.28938601 8.23727415z"/>
    <path opacity=".86" d="M216.22908383 169.37289139l2.81500864-3.4226039 1.02070162 4.30284325 4.14458817 1.60355416-3.8014905 2.2945818-.25351155 4.413655-3.37015205-2.8847134-4.30126756 1.1242343 1.7186224-4.07743235-2.40481772-3.71883956z"/>
    <path opacity=".94" d="M216.52475629 80.63084117l3.19728139-2.59828041-4.0195719-.94211732-1.49798633-3.82549584-2.14352218 3.50881328-4.1230882.23399388 2.69480292 3.11068341-1.05022287 3.97011175 3.80900196-1.58630512 3.47401508 2.21967024z"/>
    <path opacity=".95" d="M251.58897664 67.79714335l-1.91548325 3.39739232-1.54772536-3.57780453-3.8424986-.76096931 2.94492407-2.56876071-.45931173-3.86769767 3.3677887 1.99022342 3.55862824-1.62939943-.86351633 3.79878622 2.6586653 2.86067402z"/>
    <path opacity=".77" d="M88.01206602 103.01433874l-1.23173061-5.01022056 4.74994715 2.07576738 4.41308828-2.71267176-.51825335 5.1318588 3.959169 3.33369671-5.0702448 1.09589452-1.9661878 4.77300991-2.61533035-4.45455809-5.17433998-.38381405z"/>
    <path opacity=".86" d="M53.76821664 13.6413942l3.47951609-2.58105228-.05548865 4.315232 3.54474686 2.4918067-4.14590507 1.28102397-1.28874211 4.12107293-2.50682168-3.52351602-4.3412333.05515658 2.59660417-3.45867542-1.39428775-4.08698592z"/>
    <path opacity=".78" d="M190.71082841 185.50418762l-3.29588084-1.44032854.8546699 3.47647977-2.39657167 2.6707091 3.59035847.26632 1.8147191 3.09091791 1.36429294-3.31188485 3.51813-.76041668-2.74717907-2.31317725.35960441-3.56088187z"/>
    <path opacity=".94" d="M3.29537094 154.13649229L.6492151 158.07565785l4.7550508-.3083289 2.95123662 3.71883941 1.17438595-4.59051556 4.47011974-1.64079671-4.02924077-2.52876418-.18855027-4.73290824-3.6645929 3.02765253-4.58665013-1.28430102z"/>
    <path d="M94.50647771 204.35903902c-3.43195398-1.7486679-4.78798552-5.96515491-3.02878096-9.41778826 1.75920456-3.45263335 5.96746955-4.83396967 9.39942354-3.08530178 3.43195309 1.74866744 4.78798463 5.96515446 3.02878007 9.4177878-1.75920456 3.45263336-5.96746955 4.83396968-9.39942265 3.08530224zm1.1148622-2.18804027c2.23076938 1.13663377 4.96614244.23876423 6.1096251-2.00544687 1.14348268-2.2442111.26206245-4.98492886-1.96870692-6.12156263-2.23077027-1.13663422-4.96614333-.23876468-6.109626 2.00544642-1.14348267 2.2442111-.26206244 4.98492886 1.96870782 6.12156308z" opacity=".9"/>
    <path d="M3.01782238 78.81194c-1.57336893 2.42277569-.87295378 5.66997671 1.56441997 7.25282574 2.4373746 1.58284957 5.68872401.90195446 7.26209294-1.52082124 1.57336899-2.42277577.87295468-5.66997625-1.56441992-7.25282582-2.43737375-1.58284903-5.688724-.90195446-7.26209299 1.52082132zm1.54463997 1.00310092c1.02268985-1.57480426 3.13606708-2.01738599 4.72036023-.98853398 1.58429315 1.028852 2.0395626 3.13953237 1.01687274 4.71433664-1.02268979 1.57480418-3.13606708 2.01738599-4.72036023.98853399-1.58429315-1.028852-2.03956253-3.13953246-1.01687274-4.71433665z" opacity=".95"/>
    <path d="M176.92431002 27.40701925c-3.2651678-3.04481824-3.42892334-8.1760222-.3657584-11.46086443 3.06316427-3.28484151 8.19329188-3.47941957 11.45845968-.43460134 3.26516787 3.0448183 3.4289234 8.17602226.36575915 11.46086377-3.06316495 3.28484224-8.19329256 3.4794203-11.45846043.434602zm1.9412224-2.08170616c2.12235911 1.97913189 5.4569423 1.85265583 7.4479997-.2824918 1.9910567-2.13514691 1.8846159-5.47042975-.23774322-7.44956164-2.12235904-1.97913183-5.45694224-1.85265577-7.44799894.28249113-1.99105738 2.13514764-1.88461658 5.47043048.23774246 7.4495623z" opacity=".9"/>
    <path d="M259.24972438 199.37898003c2.53518884.13286361 4.4820092 2.30813075 4.34834503 4.85859523-.13366418 2.55046448-2.29719699 4.51031713-4.83238583 4.37745351-2.53518785-.13286356-4.48200821-2.3081307-4.34834403-4.85859518.13366418-2.55046448 2.29719699-4.51031713 4.83238483-4.37745356zm-.08470714 1.61630856c-1.64787255-.08636134-3.05416882 1.18754284-3.14105054 2.84534476-.08688172 1.65780193 1.17855147 3.07172552 2.82642402 3.15808686 1.64787355.08636139 3.05416882-1.18754284 3.14105054-2.84534477.08688172-1.65780192-1.17855047-3.07172545-2.82642402-3.15808685z" opacity=".81"/>
    <path d="M339.95705828 60.31588223c2.27436284 1.313104 5.18899346.52274029 6.5100096-1.7653268 1.32101616-2.2880671.5481759-5.2073931-1.72618694-6.5204971-2.27436293-1.31310406-5.18899346-.5227403-6.51000961 1.7653268-1.32101615 2.28806709-.54817598 5.20739305 1.72618695 6.5204971zm.83716895-1.45001915c-1.47833594-.85351765-1.980682-2.75107954-1.1220215-4.23832315.8586605-1.48724361 2.75317031-2.00098008 4.23150625-1.14746243 1.47833585.8535176 1.98068201 2.75107952 1.12202151 4.23832313-.8586605 1.48724361-2.75317041 2.00098005-4.23150626 1.14746245z" opacity=".99"/>
    <path d="M17.89177113 130.40147833c.77845392 2.13878457 3.15378964 3.23774748 5.30546116 2.4546031 2.15167245-.78314473 3.26488544-3.15183553 2.48643152-5.2906201s-3.15378998-3.23774842-5.30546244-2.4546037c-2.15167151.7831444-3.26488416 3.15183613-2.48643024 5.2906207zm1.36358138-.49630303c-.5059952-1.3902104.21759353-2.92985952 1.6161794-3.43890315 1.39858681-.50904397 2.94255532.20528182 3.44855052 1.59549221.50599486 1.39020946-.21759387 2.92985858-1.61618068 3.43890255-1.39858588.50904363-2.94255438-.20528216-3.44854924-1.59549161zM138.7278007 203.58333149c-.36601801-3.48242881 2.17734288-6.6039987 5.68075411-6.97222206 3.50341223-.36822347 6.64020546 2.15633817 7.00622348 5.63876698.36601801 3.4824288-2.17734288 6.6039987-5.6807551 6.97222216-3.50341124.36822336-6.64020447-2.15633828-7.00622248-5.63876708zm2.2202214-.23335468c.2379117 2.26357858 2.27682672 3.9045443 4.55404417 3.66519911 2.27721844-.2393453 3.93040231-2.26836626 3.69249062-4.53194484-.2379117-2.26357857-2.2768266-3.9045433-4.55404505-3.665198-2.27721745.2393452-3.93040143 2.26836516-3.69248973 4.53194373z" opacity=".8"/>
    <path d="M208.03172 113.16152548c.3202657-3.04712459 3.0649589-5.25611611 6.13044435-4.93392061 3.06548545.3221955 5.29092635 3.05356917 4.97066065 6.10069376-.3202658 3.04712558-3.06496 5.256117-6.13044545 4.9339215-3.06548545-.3221955-5.29092536-3.05356907-4.97065956-6.10069465zm1.9426931.20418527c-.20817272 1.98063113 1.23836345 3.75602412 3.23092884 3.96545118 1.9925654.20942706 3.77661624-1.22641755 3.98478896-3.20704868.20817272-1.98063113-1.23836345-3.75602412-3.23092884-3.96545118-1.9925654-.20942706-3.77661624 1.22641755-3.98478896 3.20704868z" opacity=".82"/>
    <path d="M149.62888423 3.98789165c2.43285718.2987173 4.16146017 2.52498024 3.86094305 4.97249583-.30051725 2.44751658-2.5163551 4.18946308-4.94921228 3.89074578-2.43285714-.2987173-4.16146018-2.52498024-3.86094293-4.97249682.30051712-2.44751558 2.51635502-4.18946208 4.94921216-3.89074479zm-.19044718 1.55106776c-1.58135715-.19416625-3.02165166.93809773-3.21698786 2.52898346-.1953362 1.59088572.92825583 3.0379564 2.50961298 3.23212264 1.58135717.19416624 3.02165174-.93809874 3.21698795-2.52898446.1953362-1.59088573-.9282559-3.0379554-2.50961307-3.23212164zM32.2767166 182.16778594l-9.06661849 3.75149315 8.62109201 6.00039792z" opacity=".76"/>
    <path d="M147.9799228 162.25163798l-3.28036369 7.97869244 9.10821446-1.59640482z"/>
    <path opacity=".81" d="M272.42621006 128.17107385l4.98264552 7.38138752 3.9086795-8.33198585z"/>
    <path opacity=".77" d="M239.10381485 86.53965596l3.94577476 6.26791298 3.47489592-6.77902058z"/>
    <path opacity=".96" d="M106.18440157 51.92691302l-2.75748286 2.7667006 3.88654111.4926819 1.79503422 3.4617722 1.67239872-3.521934 3.86687483-.62720771-2.85294161-2.6693567.59482599-3.84940782-3.4356127 1.87218106-3.49925315-1.75185755z"/>
    <path opacity=".83" d="M315.2112712 178.94631023l2.14352163-3.5088131 1.49798737 3.8254954 4.01957178.9421177-3.19728214 2.59828034.3407104 4.0910739-3.47401571-2.21967023-3.80900143 1.5863051 1.05022226-3.97011195-2.6948024-3.1106836z"/>
    <path opacity=".71" d="M65.01022533 128.5875095l1.7330659-3.01623729-3.46267544.46734406-2.35035067-2.5704409-.62287719 3.417893-3.1856618 1.42761867 3.07771616 1.64502985.38150293 3.45275659 2.52501016-2.40120917 3.42144363.70630292z"/>
    <path opacity=".89" d="M201.21292843 59.54335716l2.8963738 1.74825312-3.15778183 1.22175563-.77767725 3.27835662-2.14476788-2.60769826-3.37700544.27788307 1.83224237-2.8334017-1.30942633-3.1066158 3.27715587.85655968 2.56773516-2.1978771z"/>
    <path opacity=".77" d="M238.36975554 167.0157593l2.43441206.07318473-1.42234379-1.9652072.82229635-2.27878121-2.31981275.73734576-1.92620473-1.48154901-.01137915 2.42091089-2.0127565 1.3631336 2.31277955.75886037.6822537 2.32401146z"/>
    <path opacity=".92" d="M138.31754761 91.4518075l-3.13470852-.96857882 2.68017406-1.8840489-.04195441-3.2627367 2.63085342 1.95152746 3.10877962-1.04790376-1.05421744 3.09015945 1.96328566 2.61509669-3.28239548-.04170389-1.89540177 2.66412174z"/>
    <path opacity=".98" d="M294.96702975 128.93630634l-1.03205304-3.20823442 3.18958174 1.13721186 2.75067565-1.96706127-.10243533 3.36672237 2.73206406 1.99252386-3.25289012.94353599-1.06216711 3.19850814-1.90796145-2.78358392-3.38851947-.01573732z"/>
    <path opacity=".88" d="M334.68873198 170.20927763l.87488655-3.68815084 2.41286436 2.93366018 3.7991307-.31261826-2.06127233 3.1875767 1.47310486 3.49494271-3.68680034-.96362981-2.88870212 2.4726119-.2172954-3.78313286-3.25842068-1.96678476z"/>
    <path opacity=".97" d="M130.3824388 116.10000982l-3.02600383 2.12715278 3.53918778 1.09355724 1.10014494 3.51798922 2.13997074-3.0078799 3.70593006.047085-2.21661248-2.95252833 1.19024456-3.48888947-3.50991115 1.18311668-2.9703193-2.20333711z"/>
    <path opacity=".95" d="M292.44228011 29.90206632l3.39396702 2.33883345-.196866-4.1004012 3.28655926-2.48578223-3.98404592-1.08098435-1.3627618-3.87513143-2.26540984 3.43231615-4.12879238.09081934 2.5839457 3.20227242-1.18897219 3.93126076z"/>
  </g>
</svg>
