<svg id="Layer_1" data-name="Layer 1" xmlns="http://www.w3.org/2000/svg" viewBox="0 0 240 100"><defs><style>.cls-1{fill:#f69e00;}.cls-2{fill:#fafafa;}</style></defs><title>lp logos</title><path class="cls-1" d="M209.7,54.1a35.1,35.1,0,0,1-2.4,6.1,26.9,26.9,0,0,1-1.6,2.9L203.9,66a53.8,53.8,0,0,1-9,10.1A87.3,87.3,0,0,1,172,90.2c-2.1.8-4.2,1.7-6.3,2.4s-4.2,1.4-6.3,2.1a116.5,116.5,0,0,1-13,3c-4.4.8-8.7,1.3-13.1,1.8s-8.9.5-13.3.5A136.1,136.1,0,0,1,68.2,89.9a87,87,0,0,1-22.9-14,57.5,57.5,0,0,1-9.1-10,41.5,41.5,0,0,1-3.5-5.7A36.1,36.1,0,0,1,30.3,54l1.1-.6c4.2,7.1,10.5,12.7,17.4,17.1A103.2,103.2,0,0,0,71.2,80.8,162.2,162.2,0,0,0,120.1,88a157.7,157.7,0,0,0,24.7-1.6A134.3,134.3,0,0,0,169,81a92.4,92.4,0,0,0,22.3-10.4,52.7,52.7,0,0,0,17.3-17.2Z"/><path class="cls-2" d="M22.8,37.3c-.3,0-.7.3-.9.3s-1.7-2.5-2.1-4.3c-1.4,1.4-3.9,4.3-9.2,4.3S0,33.3,0,26.6c0-12,12.9-12,18.5-12V12.4c0-3.2-.6-5.3-5.1-5.3S5.6,9.2,4.7,9.2A.8.8,0,0,1,4,8.5L2.5,4.2a2.9,2.9,0,0,1-.2-.9C2.3,1.7,9.3,0,14.8,0,23.6,0,27,4.1,27,11.5V25.2c0,6.9,1.8,7.8,1.8,9.2s-.3.5-.6.7ZM18.5,20.4c-1.8,0-10-.6-10,5.7a4.6,4.6,0,0,0,4.7,4.8c2.6,0,4.4-1.8,5.3-2.7Z"/><path class="cls-2" d="M80.6,35.4c0,.7-.2,1-1,1h-7c-.9,0-1-.3-1-1v-22c0-2.7-.3-5.9-3-5.9a9.2,9.2,0,0,0-6.2,2.9v25c0,.7-.2,1-1,1h-7c-.9,0-1-.3-1-1v-22c0-2.7-.3-5.9-3-5.9a9.5,9.5,0,0,0-6.2,2.9v25c0,.7-.1,1-1,1h-7c-.8,0-1-.3-1-1V13.9c0-10.1-1.3-9.5-1.3-11.1s.3-.7.8-.8L40,.2,41.1,0c.9,0,1.5,1.6,2.3,4.9C45.5,3.1,48.6,0,54.2,0c3,0,6.4,1.9,7.2,4.9C63.5,3.1,66.6,0,72.4,0s8.2,5.1,8.2,11.2Z"/><path class="cls-2" d="M109,37.3c-.3,0-.6.3-.9.3s-1.7-2.5-2.1-4.3c-1.4,1.4-3.9,4.3-9.2,4.3s-10.6-4.3-10.6-11c0-12,12.9-12,18.5-12V12.4c0-3.2-.6-5.3-5-5.3s-7.9,2.1-8.8,2.1-.6-.4-.7-.7L88.8,4.2a1.5,1.5,0,0,1-.2-.9c0-1.6,7-3.3,12.4-3.3,8.9,0,12.2,4.1,12.2,11.5V25.2c0,6.9,1.8,7.8,1.8,9.2s-.3.5-.6.7Zm-4.3-16.9c-1.8,0-10-.6-10,5.7a4.6,4.6,0,0,0,4.7,4.8c2.6,0,4.4-1.8,5.3-2.7Z"/><path class="cls-2" d="M144.7,35.4c-.2.6-.7,1-1,1H120.2a.7.7,0,0,1-.7-.8V30.3L135.7,8.7H121.4c-.3,0-.4-.4-.4-.9V2.2c0-.7.2-1,.9-1h22.5c.5,0,1.2.3,1.2.7V7.5l-16,21.4h16.1c1.4,0,1.4.5,1.4.7s-.3.6-.3.8Z"/><path class="cls-2" d="M165.9,35.4c0,.7-.2,1-1,1h-7c-.9,0-1-.3-1-1V7.8h-5.5c-.8,0-1-.2-1-1V2.2c0-.8.2-1,1-1h13.5c.8,0,1,.2,1,1Z"/><path class="cls-2" d="M203.2,35.4c0,.7-.1,1-1,1h-7c-.8,0-1-.3-1-1v-22c0-2.7-.3-5.9-3.9-5.9s-5.3,2-6.3,2.9v25c0,.7-.1,1-.9,1h-7c-.9,0-1-.3-1-1V13.9c0-10.1-1.4-9.5-1.4-11.1s.3-.7.8-.8L179.9.2l1-.2c1,0,1.5,1.6,2.3,4.9C185.3,3.1,188.4,0,194,0c3.9,0,9.2,1.8,9.2,10.4Z"/><path class="cls-2" d="M238,22.6c0,4.6.4,12,.4,16,0,7.7-3.8,12.8-13.7,12.8-5.5,0-14.6-2.2-14.6-3.7a3.1,3.1,0,0,1,.3-1.5l1.3-4.3a.8.8,0,0,1,.8-.7c.8,0,5.1,2.8,11.4,2.8s5.8-2.1,5.8-6.1c0-2.5-.2-4.2-.2-4.7a13.8,13.8,0,0,1-8.5,2.7c-8,0-12.1-6.7-12.1-17.3S213.8,0,222.2,0a11.5,11.5,0,0,1,8.5,3.3c.2-.6,1.4-3.3,2.4-3.3h.7l5.6,2.1c.2.1.6.4.6.6s-2,3.5-2,9.2Zm-8.5-13a8,8,0,0,0-5.6-2.1c-4.2,0-6,4-6,10.8s1.4,10.5,5.6,10.5a8.2,8.2,0,0,0,6-2.4Z"/><path class="cls-2" d="M63.6,71.8c0,.5-.3.6-.7.7l-3.1.6h-.6c-.2,0-.3-.1-.3-.8V53.8c0-5.2-.7-4.9-.7-5.7a.4.4,0,0,1,.4-.4l2.8-1H62c.4,0,.7.7,1.1,1.9a6.7,6.7,0,0,1,4.7-1.9c4,0,6.3,3.2,6.3,9.4s-2,10-6.7,10a6.9,6.9,0,0,1-3.8-.9Zm0-10.1a4.8,4.8,0,0,0,2.6.7c2.6,0,3.3-1.9,3.3-6.2s-.7-5.9-3-5.9a4,4,0,0,0-2.9,1.4Z"/><path class="cls-2" d="M81.5,64.9c0,.4-.1.5-.5.5H77.4c-.4,0-.5-.1-.5-.5V53.8c0-4-1-4.7-1-5.6s.2-.2.4-.3L79,46.8l.5-.2c.5,0,1.2,1.7,1.4,2.9.7-.8,2-2.9,4.5-2.9s2.1.4,2.1.9,0,.3-.1.3l-1.1,3.1c0,.1-.1.4-.3.4a7,7,0,0,0-1.7-.4c-1.1,0-2.3,1.2-2.8,1.7Z"/><path class="cls-2" d="M95.2,66c-4.9,0-7.9-3.7-7.9-9.7s3-9.7,7.9-9.7,7.9,3.8,7.9,9.7S100.1,66,95.2,66Zm3-9.7c0-3.4-.5-6-3-6s-3,2.6-3,6,.4,6.1,3,6.1S98.2,59.8,98.2,56.3Z"/><path class="cls-2" d="M117.4,65.9h-.5c-.3,0-.9-1.2-1-2.2A6.8,6.8,0,0,1,111,66c-4.1,0-6.2-3.3-6.2-8.9s2.5-10.5,7-10.5a5.1,5.1,0,0,1,3.4,1.1V42.3c0-.6.3-.6.7-.7L119,41h.5c.3,0,.3.1.3.7v18c0,3.6.7,4.1.7,4.8s-.1.3-.3.4ZM115.2,51a4.9,4.9,0,0,0-2.5-.7c-2.7,0-3.3,2.1-3.3,6.1s.7,6,3.1,6a3.1,3.1,0,0,0,2.7-1.3Z"/><path class="cls-2" d="M134.5,65.9H134c-.5,0-.8-.7-1.2-2.1a7.9,7.9,0,0,1-5.6,2.1c-2,0-4.7-.9-4.7-5.3V48c0-.5.2-.5.7-.6l3-.7h.6c.2,0,.3.2.3.8V59.1c0,1.4.2,3.1,2.1,3.1a5.3,5.3,0,0,0,3.2-1.2V48c0-.5.2-.5.7-.6l3-.7h.7c.1,0,.2.2.2.8V58.9c0,5.2.7,4.9.7,5.7s-.1.3-.4.4Z"/><path class="cls-2" d="M152.9,63.7v.4c0,.9-3,1.9-5.2,1.9-5.1,0-8.1-3.1-8.1-9.3s3.1-10.1,8.5-10.1c2,0,5.2,1.1,5.2,2.3s-.1.2-.1.3l-1.4,2.4a.2.2,0,0,1-.2.2c-.4,0-1.6-1.5-3.5-1.5s-3.6,1.9-3.6,6.1,1,6,3.8,6,2.6-1.3,3.2-1.3.2.1.3.2Z"/><path class="cls-2" d="M167.1,64.4v.2c0,.7-2.6,1.4-5.1,1.4-4.8,0-4.8-3.7-4.8-7.1V50.7h-2.5c-.5,0-.6-.1-.6-.5V47.8c0-.4.1-.5.6-.5h2.5V42.6c0-.5.1-.6.6-.6l3.2-.5h.5c.4,0,.4.2.4.6v5.2h4.2c.3,0,.6,0,.6.4V48l-.4,2.1c-.1.5-.3.6-.7.6H162v8.9c0,1.1,0,2.2,1.2,2.2s2.4-.7,2.9-.7.3.1.3.2Z"/><path class="cls-2" d="M180.2,50.9a.4.4,0,0,1-.3.4,10.6,10.6,0,0,0-4.2-1c-1.4,0-2.4.5-2.4,1.8s3.3,1.8,5.9,3.5a5.3,5.3,0,0,1,2.4,4.5c0,3.4-2.4,5.9-6.2,5.9s-6.9-1.4-6.9-2.3a.8.8,0,0,1,.2-.5l.8-2.1c.1-.2.1-.4.3-.4s2.9,1.7,5.2,1.7,2.2-.5,2.2-1.9-3.5-2.1-6-3.7a4.8,4.8,0,0,1-2.1-4.2c0-3.3,2.5-6,6.5-6,2.2,0,5.7,1,5.7,1.8s-.2.4-.2.5Z"/></svg>