<svg xmlns="http://www.w3.org/2000/svg" width="140" height="40" viewBox="0 0 140 40"><path d="M135.02 40H4.9C2.2 40 0 37.87 0 35.27V4.73C0 2.13 2.2 0 4.9 0h130.12c2.7 0 4.98 2.12 4.98 4.73v30.54c0 2.6-2.28 4.73-4.98 4.73z"/><path fill="#000" d="M139.03 35.27c0 2.1-1.78 3.83-3.98 3.83H4.87A3.9 3.9 0 0 1 .9 35.27V4.72A3.9 3.9 0 0 1 4.86.9h130.18a3.9 3.9 0 0 1 3.98 3.82v30.55z"/><path fill="#FFF" d="M30.13 19.78a5.77 5.77 0 0 1 2.76-4.86 6 6 0 0 0-4.7-2.53c-1.95-.22-3.86 1.17-4.86 1.17-1.03 0-2.57-1.16-4.23-1.12a6.21 6.21 0 0 0-5.23 3.2c-2.27 3.9-.58 9.68 1.6 12.85 1.08 1.55 2.35 3.3 4 3.23 1.64-.07 2.24-1.04 4.2-1.04 1.95 0 2.52 1.03 4.2 1 1.75-.04 2.85-1.57 3.9-3.14a12.7 12.7 0 0 0 1.78-3.62c-.04-.02-3.4-1.3-3.42-5.16zm-3.2-9.48a5.69 5.69 0 0 0 1.3-4.08 5.77 5.77 0 0 0-3.75 1.94c-.8.94-1.53 2.5-1.34 3.94 1.42.1 2.88-.72 3.8-1.8zm26.75 21.2H51.4l-1.23-3.9h-4.33l-1.18 3.9h-2.2l4.27-13.3h2.65l4.3 13.3zm-3.9-5.55l-1.1-3.47c-.13-.36-.35-1.2-.68-2.5h-.04c-.13.56-.35 1.4-.64 2.5l-1.1 3.47h3.57zm14.92.65c0 1.62-.44 2.9-1.32 3.85a3.88 3.88 0 0 1-2.95 1.27c-1.26 0-2.17-.45-2.72-1.36h-.03v5.05h-2.13V25.08c0-1.03-.03-2.08-.08-3.16h1.87l.12 1.53h.04a3.52 3.52 0 0 1 3.23-1.72c1.13 0 2.08.45 2.83 1.35.76.9 1.14 2.07 1.14 3.54zm-2.17.06c0-.93-.2-1.7-.64-2.3a2.2 2.2 0 0 0-1.86-.95c-.53 0-1 .18-1.43.53-.42.35-.7.8-.83 1.37-.07.27-.1.48-.1.65v1.6c0 .7.2 1.3.64 1.77.44.48 1 .72 1.68.72.8 0 1.43-.3 1.87-.93a4 4 0 0 0 .68-2.44zm13.21-.06c0 1.62-.45 2.9-1.33 3.85a3.81 3.81 0 0 1-2.93 1.27c-1.26 0-2.17-.45-2.72-1.36h-.04v5.05h-2.13V25.08c0-1.03-.02-2.08-.07-3.16h1.87l.12 1.53h.03a3.55 3.55 0 0 1 3.24-1.72c1.13 0 2.07.45 2.83 1.35.76.9 1.14 2.07 1.14 3.54zm-2.18.06c0-.93-.2-1.7-.63-2.3a2.16 2.16 0 0 0-1.85-.95c-.53 0-1 .18-1.44.53-.42.35-.7.8-.84 1.37-.06.27-.1.48-.1.65v1.6c0 .7.22 1.3.65 1.77.42.48.98.72 1.67.72.8 0 1.43-.3 1.87-.93.44-.6.66-1.42.66-2.44zm14.52 1.11c0 1.13-.4 2.05-1.2 2.77a5.2 5.2 0 0 1-3.6 1.16c-1.44 0-2.6-.28-3.46-.83l.5-1.78c.93.56 1.95.84 3.07.84.8 0 1.42-.18 1.87-.54.45-.36.67-.85.67-1.45 0-.55-.18-1-.55-1.37-.38-.37-1-.7-1.85-1.03-2.33-.87-3.5-2.14-3.5-3.8 0-1.1.42-2 1.23-2.7.82-.7 1.9-1.05 3.26-1.05 1.2 0 2.22.2 3.02.63l-.53 1.74c-.75-.4-1.6-.6-2.55-.6a2.6 2.6 0 0 0-1.76.54c-.35.34-.53.74-.53 1.2 0 .54.2.97.6 1.32.36.3 1 .65 1.94 1.02 1.14.47 2 1 2.53 1.62.54.62.8 1.4.8 2.3zm7.04-4.27h-2.35v4.67c0 1.18.42 1.77 1.25 1.77.38 0 .7-.03.95-.1l.05 1.62c-.42.16-.97.24-1.65.24-.85 0-1.5-.26-1.98-.77-.48-.52-.72-1.38-.72-2.6V23.5h-1.4v-1.6h1.4v-1.75l2.1-.64v2.4h2.34v1.6zm10.61 3.13c0 1.47-.42 2.68-1.27 3.63a4.5 4.5 0 0 1-3.5 1.46 4.32 4.32 0 0 1-3.38-1.4 5.12 5.12 0 0 1-1.25-3.54c0-1.48.43-2.7 1.3-3.65a4.48 4.48 0 0 1 3.48-1.42c1.42 0 2.55.48 3.4 1.4.82.92 1.23 2.1 1.23 3.53zm-2.2.07c0-.9-.2-1.65-.6-2.28a2.06 2.06 0 0 0-1.9-1.15c-.86 0-1.5.38-1.96 1.15-.38.63-.57 1.4-.57 2.3 0 .9.2 1.66.57 2.3.46.76 1.1 1.14 1.94 1.14.83 0 1.46-.4 1.93-1.17.4-.65.6-1.42.6-2.3zm9.13-2.92a3.71 3.71 0 0 0-.67-.06c-.77 0-1.34.3-1.75.85-.36.5-.53 1.14-.53 1.9v5.03h-2.14l.02-6.57c0-1.1-.02-2.1-.08-3.02h1.86l.08 1.84h.06c.22-.63.58-1.13 1.06-1.52.48-.34 1-.5 1.54-.5.2 0 .38 0 .54.03v2.03zm9.54 2.47c0 .38-.03.7-.1.97h-6.38c.02.95.33 1.67.92 2.17.54.44 1.24.66 2.1.66.95 0 1.8-.15 2.6-.45l.32 1.5c-.9.38-1.98.58-3.22.58-1.5 0-2.65-.44-3.5-1.3a4.9 4.9 0 0 1-1.27-3.54c0-1.44.4-2.65 1.18-3.6a4.1 4.1 0 0 1 3.36-1.55c1.4 0 2.43.5 3.14 1.53.57.82.85 1.82.85 3.02zm-2.04-.55c0-.63-.13-1.18-.42-1.64-.36-.6-.93-.9-1.7-.9-.7 0-1.26.3-1.7.88-.34.46-.56 1-.62 1.66h4.44zM47.43 13.43H43.7V6.9h1.06v5.65h2.67v.88m4.94 0h-.95l-.07-.54h-.03c-.33.42-.78.64-1.38.64-.45 0-.8-.14-1.08-.43a1.32 1.32 0 0 1-.36-.95c0-.57.24-1 .72-1.32.48-.3 1.16-.45 2.03-.44v-.1c0-.62-.33-.93-.98-.93-.46 0-.87.12-1.23.35l-.2-.7c.43-.26.97-.4 1.6-.4 1.24 0 1.86.65 1.86 1.95v1.74c0 .48.02.85.06 1.13zm-1.1-1.62v-.7c-1.15-.03-1.73.28-1.73.94 0 .24.07.43.2.55.14.1.3.17.52.17.23 0 .44-.07.64-.22.2-.14.32-.33.36-.55l.02-.2zm7.05 1.62h-.93l-.06-.75h-.03c-.3.57-.8.86-1.5.86-.57 0-1.04-.22-1.42-.67a2.63 2.63 0 0 1-.56-1.74c0-.76.2-1.38.6-1.85.4-.44.9-.66 1.46-.66.64 0 1.08.2 1.33.64h.03v-2.7h1.05v5.6c0 .46 0 .88.04 1.27zm-1.1-2v-1.1c-.07-.25-.2-.47-.4-.64a.98.98 0 0 0-.7-.26c-.4 0-.7.15-.92.46-.22.3-.33.7-.33 1.2 0 .46.1.84.32 1.13.22.3.52.46.9.46.35 0 .62-.13.83-.4.2-.23.3-.52.3-.86zm6.81-.58c0 .2-.02.35-.04.48h-3.16c.02.46.17.82.46 1.06.26.2.6.32 1.03.32.46 0 .9-.07 1.27-.22l.16.73c-.44.2-.97.3-1.58.3a2.3 2.3 0 0 1-1.72-.65c-.42-.44-.63-1-.63-1.74 0-.7.2-1.3.6-1.77.4-.5.94-.76 1.63-.76.68 0 1.2.27 1.55.77.3.4.43.9.43 1.48zm-1-.27c0-.3-.07-.58-.2-.8a.93.93 0 0 0-.84-.44 1 1 0 0 0-.85.43c-.17.22-.27.5-.3.8h2.18zm6.61 2.85H68.6v-2.7c0-.83-.32-1.25-.96-1.25-.3 0-.56.12-.75.35-.2.23-.3.5-.3.8v2.8h-1.05v-3.37c0-.4-.02-.86-.04-1.34h.93l.05.73h.03c.13-.23.3-.42.55-.57.28-.17.6-.26.95-.26.44 0 .8.14 1.1.43.36.34.54.87.54 1.56v2.83zm5.84-6.13c0 .2-.06.35-.2.47-.1.1-.27.17-.46.17-.18 0-.32-.06-.44-.18s-.18-.27-.18-.45c0-.17.06-.32.18-.43.13-.12.28-.18.46-.18s.33.05.45.16c.12.12.18.27.18.45zm-.12 6.13H74.3v-4.7h1.06v4.7zm8.62 0h-1.03V10.8c0-.88-.3-1.32-.9-1.32a.8.8 0 0 0-.68.33c-.17.22-.25.48-.25.77v2.86H80.1v-2.78c0-.35-.1-.64-.23-.85a.77.77 0 0 0-.65-.32c-.28 0-.5.12-.7.35-.18.23-.27.5-.27.8v2.8h-1.02v-3.37c0-.4-.02-.86-.04-1.35h.9l.04.73h.03c.32-.54.8-.8 1.43-.8.64 0 1.08.28 1.3.87h.02c.15-.25.34-.44.56-.6.27-.2.6-.28.96-.28.42 0 .76.14 1.03.42.34.36.5.9.5 1.6v2.8z"/></svg>