<svg xmlns="http://www.w3.org/2000/svg" width="140" height="40" viewBox="0 0 140 40"><defs><linearGradient id="a" x1="80.75%" x2="-156.78%" y1="50%" y2="50%"><stop offset="0%" stop-color="#FEE000"/><stop offset="42%" stop-color="#FBBC0E"/><stop offset="78%" stop-color="#FAA418"/><stop offset="100%" stop-color="#F99B1C"/></linearGradient><linearGradient id="b" x1="86.15%" x2="-50.12%" y1="17.81%" y2="194.7%"><stop offset="0%" stop-color="#EF4547"/><stop offset="100%" stop-color="#C6186D"/></linearGradient><linearGradient id="c" x1="-50.72%" x2="60.61%" y1="-95.48%" y2="48.89%"><stop offset="0%" stop-color="#279E6F"/><stop offset="4%" stop-color="#2BA06F"/><stop offset="46%" stop-color="#53B26C"/><stop offset="80%" stop-color="#6BBD6A"/><stop offset="100%" stop-color="#74C169"/></linearGradient></defs><rect width="140" height="40" fill="#000" rx="5"/><path d="M134.8.8a4.28 4.28 0 0 1 4.37 4.2v30c0 2.32-1.95 4.2-4.36 4.2H5.2A4.29 4.29 0 0 1 .82 35V5A4.3 4.3 0 0 1 5.2.8h129.6zm0-.8H5.2C2.3 0 0 2.24 0 5v30c0 2.76 2.32 5 5.2 5h129.6a5.1 5.1 0 0 0 5.2-5V5c0-2.76-2.32-5-5.2-5z"/><path fill="#FFF" d="M68.14 21.75a4.24 4.24 0 0 0-4.23 4.26 4.27 4.27 0 0 0 4.27 4.25c2.34 0 4.24-1.9 4.24-4.25a4.2 4.2 0 0 0-4.26-4.25zm0 6.83a2.56 2.56 0 0 1-2.5-1.46 2.58 2.58 0 1 1 4.9-1.12 2.47 2.47 0 0 1-2.4 2.58zm-9.3-6.83a4.24 4.24 0 0 0-4.25 4.26 4.24 4.24 0 1 0 8.49 0 4.2 4.2 0 0 0-4.28-4.25zm0 6.83A2.58 2.58 0 1 1 61.22 26a2.47 2.47 0 0 1-2.4 2.58zm-11.1-5.52v1.8h4.32a3.77 3.77 0 0 1-1 2.27 4.37 4.37 0 0 1-3.33 1.32 4.8 4.8 0 1 1 3.27-8.3l1.27-1.28A6.36 6.36 0 0 0 47.74 17a6.6 6.6 0 0 0-5.94 9.98 6.6 6.6 0 0 0 5.94 3.23c1.73.1 3.4-.6 4.6-1.84a5.93 5.93 0 0 0 1.57-4.22c0-.38-.02-.76-.1-1.13l-6.06.06zm45.3 1.4a3.95 3.95 0 0 0-3.63-2.7 4.02 4.02 0 0 0-4 4.25c0 1.13.42 2.22 1.22 3.02a4.26 4.26 0 0 0 6.55-.65l-1.45-1a2.44 2.44 0 0 1-2.1 1.18c-.88.03-1.7-.48-2.05-1.3l5.7-2.34-.22-.44zm-5.8 1.42a2.36 2.36 0 0 1 2.23-2.48c.66-.04 1.28.3 1.58.9l-3.8 1.58zM82.65 30h1.86V17.5h-1.87V30zm-3.07-7.3h-.07c-.57-.64-1.38-1-2.24-1a4.25 4.25 0 0 0-4.05 4.25c0 2.28 1.8 4.15 4.06 4.26.86.02 1.68-.34 2.24-1h.06v.62c0 1.63-.87 2.5-2.27 2.5a2.37 2.37 0 0 1-2.15-1.5l-1.63.67A4.08 4.08 0 0 0 77.3 34c2.18 0 4-1.3 4-4.43V22h-1.73v.7zm-2.14 5.88a2.59 2.59 0 0 1 0-5.16A2.4 2.4 0 0 1 79.72 26c.06.65-.16 1.3-.6 1.78-.42.5-1.03.78-1.68.8zM101.8 17.5h-4.46V30h1.87v-4.74h2.62a3.87 3.87 0 0 0 3.6-5.9 3.9 3.9 0 0 0-3.6-1.86zm0 6h-2.6v-4.26h2.65c1.18 0 2.15.96 2.15 2.15 0 1.17-.97 2.13-2.15 2.13l-.04-.03zm11.54-1.8c-1.4-.08-2.7.67-3.33 1.9l1.67.7c.33-.62 1-.98 1.7-.92.48-.06.96.08 1.34.4.38.3.62.73.67 1.2v.14a4.14 4.14 0 0 0-1.95-.48c-1.8 0-3.6 1-3.6 2.8.04.8.4 1.52.97 2.04s1.34.78 2.12.72c.96.07 1.88-.4 2.4-1.2h.06v1h1.8v-4.8c0-2.2-1.66-3.47-3.8-3.47l-.04-.03zm-.23 6.85c-.6 0-1.45-.3-1.45-1.06 0-1 1.06-1.34 2-1.34.6 0 1.18.13 1.7.42a2.26 2.26 0 0 1-2.2 2l-.04-.03zM123.75 22l-2.14 5.42h-.06L119.32 22h-2l3.33 7.58-1.9 4.2h1.95L125.82 22h-2.08zm-16.8 8h1.86V17.5h-1.87V30z"/><path fill="#5BC9F4" d="M10.44 7.55c-.33.4-.5.93-.44 1.45v22a2 2 0 0 0 .46 1.4l.07.07L22.9 20.15v-.3L10.5 7.5l-.06.07z"/><path fill="url(#a)" d="M27 24.27l-4.13-4.13v-.3l4.13-4.1.1.04 4.9 2.78c1.4.8 1.4 2.1 0 2.9l-4.9 2.77-.1.04z"/><path fill="url(#b)" d="M27.1 24.22L22.9 20 10.43 32.45c.6.52 1.46.54 2.08.06l14.6-8.28"/><path fill="url(#c)" d="M27.1 15.78l-14.6-8.3a1.63 1.63 0 0 0-2.07.07L22.9 20l4.2-4.22z"/><path fill="#FFF" stroke="#FFF" stroke-width=".2" d="M43 13.13c-.4 0-.8-.1-1.12-.36-.3-.26-.54-.6-.65-1l.7-.3c.08.56.55.97 1.1.96.32.02.62-.1.83-.35.2-.27.3-.6.3-.94V7h.76v4.1c.04.55-.16 1.1-.54 1.5-.37.36-.87.55-1.38.53zm6.7-5.39H47v1.9h2.46v.72H47v1.9h2.73V13H46.2V7h3.5zM53 13h-.77V7.74H50.5V7h4.13v.74H53zm2.27 0v-.8l3.2-4.46H55.4V7h4v.8l-3.2 4.46h3.24V13zm7.27 0h-.77V7.74H60.1V7h4.12v.74h-1.68zm4.66 0V7h2.17c.45 0 .9.16 1.22.46.33.3.52.72.5 1.17 0 .27-.06.53-.2.75-.16.22-.36.4-.6.5.3.1.54.27.73.5.2.26.3.56.3.87 0 .47-.2.9-.55 1.22-.35.32-.8.5-1.28.5l-2.3.03zm.8-3.43h1.4c.26 0 .52-.1.7-.3.17-.16.26-.38.26-.62s-.1-.46-.26-.63a.85.85 0 0 0-.67-.3H68v1.85zm0 2.7h1.55c.27 0 .54-.1.72-.32a.97.97 0 0 0 .28-.68 1 1 0 0 0-1-1H68v2zm7.85-4.53h-2.73v1.9h2.46v.72h-2.46v1.9h2.73V13h-3.5V7h3.5zM77.06 13V7h.77v6z"/></svg>